<svg width="20" height="15" viewBox="0 0 20 15" fill="none" xmlns="http://www.w3.org/2000/svg">
<path d="M19.5556 2.34047C18.8283 2.6066 18.0534 2.783 17.2456 2.86865C18.0767 2.45467 18.711 1.80414 19.0092 1.02003C18.2343 1.40546 17.3788 1.6777 16.467 1.82963C15.7312 1.17604 14.6826 0.77124 13.5386 0.77124C11.319 0.77124 9.53211 2.2742 9.53211 4.11669C9.53211 4.3818 9.559 4.63671 9.625 4.87939C6.292 4.74377 3.34278 3.4111 1.36156 1.38099C1.01567 1.88163 0.812778 2.45467 0.812778 3.07156C0.812778 4.22987 1.52778 5.25666 2.59356 5.85111C1.94944 5.84091 1.31756 5.68491 0.782222 5.43917C0.782222 5.44937 0.782222 5.46262 0.782222 5.47588C0.782222 7.10119 2.17189 8.4512 3.99422 8.76219C3.66789 8.83663 3.31222 8.87231 2.94311 8.87231C2.68644 8.87231 2.42733 8.86008 2.18411 8.81521C2.70356 10.1397 4.17756 11.1135 5.93022 11.1451C4.56622 12.0352 2.83433 12.5716 0.959444 12.5716C0.630667 12.5716 0.315333 12.5593 0 12.5257C1.77589 13.4811 3.88056 14.0266 6.15022 14.0266C13.5276 14.0266 17.5609 8.92839 17.5609 4.50926C17.5609 4.36141 17.5548 4.21866 17.5462 4.07693C18.3419 3.60585 19.0104 3.01752 19.5556 2.34047Z" fill="#1E2833"/>
</svg>
