<svg width="16" height="15" viewBox="0 0 16 15" fill="none" xmlns="http://www.w3.org/2000/svg">
<path fill-rule="evenodd" clip-rule="evenodd" d="M5 0.77124H11C13.761 0.77124 16 2.63914 16 4.94251V9.94803C16 12.2514 13.761 14.1193 11 14.1193H5C2.239 14.1193 0 12.2514 0 9.94803V4.94251C0 2.63914 2.239 0.77124 5 0.77124ZM10.9999 12.8679C12.9299 12.8679 14.4999 11.5581 14.4999 9.94802V4.94249C14.4999 3.33238 12.9299 2.0226 10.9999 2.0226H4.99989C3.06989 2.0226 1.49989 3.33238 1.49989 4.94249V9.94802C1.49989 11.5581 3.06989 12.8679 4.99989 12.8679H10.9999Z" fill="#1E2833"/>
<path fill-rule="evenodd" clip-rule="evenodd" d="M4 7.44529C4 5.60242 5.791 4.10828 8 4.10828C10.209 4.10828 12 5.60242 12 7.44529C12 9.28816 10.209 10.7823 8 10.7823C5.791 10.7823 4 9.28816 4 7.44529ZM5.5 7.44529C5.5 8.5949 6.622 9.53093 8 9.53093C9.37799 9.53093 10.5 8.5949 10.5 7.44529C10.5 6.29485 9.37799 5.35965 8 5.35965C6.622 5.35965 5.5 6.29485 5.5 7.44529Z" fill="#1E2833"/>
<ellipse cx="12.3001" cy="3.85799" rx="0.532997" ry="0.444658" fill="#1E2833"/>
</svg>
