<svg width="194" height="24" viewBox="0 0 194 24" fill="none" xmlns="http://www.w3.org/2000/svg">
<path fill-rule="evenodd" clip-rule="evenodd" d="M14.395 4.55299C14.3316 4.42603 14.2419 4.31401 14.1319 4.22438C14.0219 4.13475 13.8941 4.06955 13.7569 4.03314C13.6198 3.99672 13.4764 3.98991 13.3364 4.01316C13.1965 4.03642 13.063 4.08919 12.945 4.16799C12.6 4.39799 12.331 4.72599 12.123 5.04799C11.909 5.37799 11.72 5.76099 11.553 6.16399C11.219 6.96799 10.939 7.93199 10.713 8.89799C10.4397 10.0785 10.235 11.2738 10.1 12.478C9.69314 12.2157 9.36622 11.8466 9.15501 11.411C8.82701 10.731 8.757 9.87699 8.757 8.75699C8.75696 8.55924 8.69829 8.36595 8.58841 8.20154C8.47852 8.03713 8.32236 7.90899 8.13966 7.83332C7.95696 7.75765 7.75593 7.73784 7.56197 7.77641C7.36802 7.81498 7.18986 7.91019 7.05001 8.04999C6.39917 8.69943 5.88303 9.47104 5.53123 10.3205C5.17943 11.17 4.9989 12.0806 5.00001 13C5.00009 14.1511 5.28405 15.2845 5.82674 16.2996C6.36944 17.3148 7.15411 18.1804 8.11125 18.8199C9.0684 19.4594 10.1685 19.853 11.3141 19.9658C12.4596 20.0786 13.6154 19.9071 14.6789 19.4666C15.7423 19.0261 16.6808 18.3301 17.4111 17.4403C18.1413 16.5504 18.6409 15.4943 18.8655 14.3653C19.0901 13.2363 19.0328 12.0693 18.6987 10.9677C18.3645 9.86617 17.7639 8.864 16.95 8.04999C16.358 7.45899 15.97 7.06499 15.602 6.58299C15.239 6.10699 14.878 5.51999 14.395 4.55299ZM14.12 17.12C13.7005 17.539 13.1661 17.8243 12.5846 17.9399C12.003 18.0554 11.4002 17.996 10.8523 17.7691C10.3045 17.5423 9.83612 17.1582 9.50644 16.6653C9.17676 16.1725 9.00053 15.593 9.00001 15C9.00001 15 9.87901 15.5 11.5 15.5C11.5 14.5 12 11.5 12.75 11C13.25 12 13.536 12.293 14.121 12.879C14.4 13.1572 14.6213 13.4878 14.7722 13.8518C14.923 14.2158 15.0005 14.606 15 15C15.0005 15.394 14.923 15.7842 14.7722 16.1482C14.6213 16.5122 14.4 16.8428 14.121 17.121L14.12 17.12Z" fill="#6308F7"/>
<path d="M41.58 18.126C40.704 18.126 39.912 17.976 39.204 17.676C38.508 17.376 37.956 16.944 37.548 16.38C37.14 15.816 36.93 15.15 36.918 14.382H39.618C39.654 14.898 39.834 15.306 40.158 15.606C40.494 15.906 40.95 16.056 41.526 16.056C42.114 16.056 42.576 15.918 42.912 15.642C43.248 15.354 43.416 14.982 43.416 14.526C43.416 14.154 43.302 13.848 43.074 13.608C42.846 13.368 42.558 13.182 42.21 13.05C41.874 12.906 41.406 12.75 40.806 12.582C39.99 12.342 39.324 12.108 38.808 11.88C38.304 11.64 37.866 11.286 37.494 10.818C37.134 10.338 36.954 9.702 36.954 8.91C36.954 8.166 37.14 7.518 37.512 6.966C37.884 6.414 38.406 5.994 39.078 5.706C39.75 5.406 40.518 5.256 41.382 5.256C42.678 5.256 43.728 5.574 44.532 6.21C45.348 6.834 45.798 7.71 45.882 8.838H43.11C43.086 8.406 42.9 8.052 42.552 7.776C42.216 7.488 41.766 7.344 41.202 7.344C40.71 7.344 40.314 7.47 40.014 7.722C39.726 7.974 39.582 8.34 39.582 8.82C39.582 9.156 39.69 9.438 39.906 9.666C40.134 9.882 40.41 10.062 40.734 10.206C41.07 10.338 41.538 10.494 42.138 10.674C42.954 10.914 43.62 11.154 44.136 11.394C44.652 11.634 45.096 11.994 45.468 12.474C45.84 12.954 46.026 13.584 46.026 14.364C46.026 15.036 45.852 15.66 45.504 16.236C45.156 16.812 44.646 17.274 43.974 17.622C43.302 17.958 42.504 18.126 41.58 18.126ZM53.8628 18L50.4788 13.752V18H47.9588V4.68H50.4788V12.258L53.8268 8.028H57.1028L52.7108 13.032L57.1388 18H53.8628ZM59.4965 6.84C59.0525 6.84 58.6805 6.702 58.3805 6.426C58.0925 6.138 57.9485 5.784 57.9485 5.364C57.9485 4.944 58.0925 4.596 58.3805 4.32C58.6805 4.032 59.0525 3.888 59.4965 3.888C59.9405 3.888 60.3065 4.032 60.5945 4.32C60.8945 4.596 61.0445 4.944 61.0445 5.364C61.0445 5.784 60.8945 6.138 60.5945 6.426C60.3065 6.702 59.9405 6.84 59.4965 6.84ZM60.7385 8.028V18H58.2185V8.028H60.7385ZM65.4962 4.68V18H62.9762V4.68H65.4962ZM70.254 4.68V18H67.734V4.68H70.254ZM73.7698 6.84C73.3258 6.84 72.9538 6.702 72.6538 6.426C72.3658 6.138 72.2218 5.784 72.2218 5.364C72.2218 4.944 72.3658 4.596 72.6538 4.32C72.9538 4.032 73.3258 3.888 73.7698 3.888C74.2138 3.888 74.5798 4.032 74.8678 4.32C75.1678 4.596 75.3178 4.944 75.3178 5.364C75.3178 5.784 75.1678 6.138 74.8678 6.426C74.5798 6.702 74.2138 6.84 73.7698 6.84ZM75.0118 8.028V18H72.4918V8.028H75.0118ZM82.7755 7.884C83.9635 7.884 84.9235 8.262 85.6555 9.018C86.3875 9.762 86.7535 10.806 86.7535 12.15V18H84.2335V12.492C84.2335 11.7 84.0355 11.094 83.6395 10.674C83.2435 10.242 82.7035 10.026 82.0195 10.026C81.3235 10.026 80.7715 10.242 80.3635 10.674C79.9675 11.094 79.7695 11.7 79.7695 12.492V18H77.2495V8.028H79.7695V9.27C80.1055 8.838 80.5315 8.502 81.0475 8.262C81.5755 8.01 82.1515 7.884 82.7755 7.884ZM92.8039 7.866C93.5479 7.866 94.2019 8.016 94.7659 8.316C95.3299 8.604 95.7739 8.982 96.0979 9.45V8.028H98.6359V18.072C98.6359 18.996 98.4499 19.818 98.0779 20.538C97.7059 21.27 97.1479 21.846 96.4039 22.266C95.6599 22.698 94.7599 22.914 93.7039 22.914C92.2879 22.914 91.1239 22.584 90.2119 21.924C89.3119 21.264 88.8019 20.364 88.6819 19.224H91.1839C91.3159 19.68 91.5979 20.04 92.0299 20.304C92.4739 20.58 93.0079 20.718 93.6319 20.718C94.3639 20.718 94.9579 20.496 95.4139 20.052C95.8699 19.62 96.0979 18.96 96.0979 18.072V16.524C95.7739 16.992 95.3239 17.382 94.7479 17.694C94.1839 18.006 93.5359 18.162 92.8039 18.162C91.9639 18.162 91.1959 17.946 90.4999 17.514C89.8039 17.082 89.2519 16.476 88.8439 15.696C88.4479 14.904 88.2499 13.998 88.2499 12.978C88.2499 11.97 88.4479 11.076 88.8439 10.296C89.2519 9.516 89.7979 8.916 90.4819 8.496C91.1779 8.076 91.9519 7.866 92.8039 7.866ZM96.0979 13.014C96.0979 12.402 95.9779 11.88 95.7379 11.448C95.4979 11.004 95.1739 10.668 94.7659 10.44C94.3579 10.2 93.9199 10.08 93.4519 10.08C92.9839 10.08 92.5519 10.194 92.1559 10.422C91.7599 10.65 91.4359 10.986 91.1839 11.43C90.9439 11.862 90.8239 12.378 90.8239 12.978C90.8239 13.578 90.9439 14.106 91.1839 14.562C91.4359 15.006 91.7599 15.348 92.1559 15.588C92.5639 15.828 92.9959 15.948 93.4519 15.948C93.9199 15.948 94.3579 15.834 94.7659 15.606C95.1739 15.366 95.4979 15.03 95.7379 14.598C95.9779 14.154 96.0979 13.626 96.0979 13.014ZM109.274 5.436C110.594 5.436 111.752 5.694 112.748 6.21C113.756 6.726 114.53 7.464 115.07 8.424C115.622 9.372 115.898 10.476 115.898 11.736C115.898 12.996 115.622 14.1 115.07 15.048C114.53 15.984 113.756 16.71 112.748 17.226C111.752 17.742 110.594 18 109.274 18H104.882V5.436H109.274ZM109.184 15.858C110.504 15.858 111.524 15.498 112.244 14.778C112.964 14.058 113.324 13.044 113.324 11.736C113.324 10.428 112.964 9.408 112.244 8.676C111.524 7.932 110.504 7.56 109.184 7.56H107.402V15.858H109.184ZM120.053 9.576C120.377 9.048 120.797 8.634 121.313 8.334C121.841 8.034 122.441 7.884 123.113 7.884V10.53H122.447C121.655 10.53 121.055 10.716 120.647 11.088C120.251 11.46 120.053 12.108 120.053 13.032V18H117.533V8.028H120.053V9.576ZM128.986 18.162C128.026 18.162 127.162 17.952 126.394 17.532C125.626 17.1 125.02 16.494 124.576 15.714C124.144 14.934 123.928 14.034 123.928 13.014C123.928 11.994 124.15 11.094 124.594 10.314C125.05 9.534 125.668 8.934 126.448 8.514C127.228 8.082 128.098 7.866 129.058 7.866C130.018 7.866 130.888 8.082 131.668 8.514C132.448 8.934 133.06 9.534 133.504 10.314C133.96 11.094 134.188 11.994 134.188 13.014C134.188 14.034 133.954 14.934 133.486 15.714C133.03 16.494 132.406 17.1 131.614 17.532C130.834 17.952 129.958 18.162 128.986 18.162ZM128.986 15.966C129.442 15.966 129.868 15.858 130.264 15.642C130.672 15.414 130.996 15.078 131.236 14.634C131.476 14.19 131.596 13.65 131.596 13.014C131.596 12.066 131.344 11.34 130.84 10.836C130.348 10.32 129.742 10.062 129.022 10.062C128.302 10.062 127.696 10.32 127.204 10.836C126.724 11.34 126.484 12.066 126.484 13.014C126.484 13.962 126.718 14.694 127.186 15.21C127.666 15.714 128.266 15.966 128.986 15.966ZM141.31 7.884C142.498 7.884 143.458 8.262 144.19 9.018C144.922 9.762 145.288 10.806 145.288 12.15V18H142.768V12.492C142.768 11.7 142.57 11.094 142.174 10.674C141.778 10.242 141.238 10.026 140.554 10.026C139.858 10.026 139.306 10.242 138.898 10.674C138.502 11.094 138.304 11.7 138.304 12.492V18H135.784V8.028H138.304V9.27C138.64 8.838 139.066 8.502 139.582 8.262C140.11 8.01 140.686 7.884 141.31 7.884ZM156.703 12.798C156.703 13.158 156.679 13.482 156.631 13.77H149.341C149.401 14.49 149.653 15.054 150.097 15.462C150.541 15.87 151.087 16.074 151.735 16.074C152.671 16.074 153.337 15.672 153.733 14.868H156.451C156.163 15.828 155.611 16.62 154.795 17.244C153.979 17.856 152.977 18.162 151.789 18.162C150.829 18.162 149.965 17.952 149.197 17.532C148.441 17.1 147.847 16.494 147.415 15.714C146.995 14.934 146.785 14.034 146.785 13.014C146.785 11.982 146.995 11.076 147.415 10.296C147.835 9.516 148.423 8.916 149.179 8.496C149.935 8.076 150.805 7.866 151.789 7.866C152.737 7.866 153.583 8.07 154.327 8.478C155.083 8.886 155.665 9.468 156.073 10.224C156.493 10.968 156.703 11.826 156.703 12.798ZM154.093 12.078C154.081 11.43 153.847 10.914 153.391 10.53C152.935 10.134 152.377 9.936 151.717 9.936C151.093 9.936 150.565 10.128 150.133 10.512C149.713 10.884 149.455 11.406 149.359 12.078H154.093ZM164.847 16.002H168.987V18H162.327V5.436H164.847V16.002ZM169.689 12.978C169.689 11.97 169.887 11.076 170.283 10.296C170.691 9.516 171.237 8.916 171.921 8.496C172.617 8.076 173.391 7.866 174.243 7.866C174.987 7.866 175.635 8.016 176.187 8.316C176.751 8.616 177.201 8.994 177.537 9.45V8.028H180.075V18H177.537V16.542C177.213 17.01 176.763 17.4 176.187 17.712C175.623 18.012 174.969 18.162 174.225 18.162C173.385 18.162 172.617 17.946 171.921 17.514C171.237 17.082 170.691 16.476 170.283 15.696C169.887 14.904 169.689 13.998 169.689 12.978ZM177.537 13.014C177.537 12.402 177.417 11.88 177.177 11.448C176.937 11.004 176.613 10.668 176.205 10.44C175.797 10.2 175.359 10.08 174.891 10.08C174.423 10.08 173.991 10.194 173.595 10.422C173.199 10.65 172.875 10.986 172.623 11.43C172.383 11.862 172.263 12.378 172.263 12.978C172.263 13.578 172.383 14.106 172.623 14.562C172.875 15.006 173.199 15.348 173.595 15.588C174.003 15.828 174.435 15.948 174.891 15.948C175.359 15.948 175.797 15.834 176.205 15.606C176.613 15.366 176.937 15.03 177.177 14.598C177.417 14.154 177.537 13.626 177.537 13.014ZM184.804 9.486C185.128 9.006 185.572 8.616 186.136 8.316C186.712 8.016 187.366 7.866 188.098 7.866C188.95 7.866 189.718 8.076 190.402 8.496C191.098 8.916 191.644 9.516 192.04 10.296C192.448 11.064 192.652 11.958 192.652 12.978C192.652 13.998 192.448 14.904 192.04 15.696C191.644 16.476 191.098 17.082 190.402 17.514C189.718 17.946 188.95 18.162 188.098 18.162C187.354 18.162 186.7 18.018 186.136 17.73C185.584 17.43 185.14 17.046 184.804 16.578V18H182.284V4.68H184.804V9.486ZM190.078 12.978C190.078 12.378 189.952 11.862 189.7 11.43C189.46 10.986 189.136 10.65 188.728 10.422C188.332 10.194 187.9 10.08 187.432 10.08C186.976 10.08 186.544 10.2 186.136 10.44C185.74 10.668 185.416 11.004 185.164 11.448C184.924 11.892 184.804 12.414 184.804 13.014C184.804 13.614 184.924 14.136 185.164 14.58C185.416 15.024 185.74 15.366 186.136 15.606C186.544 15.834 186.976 15.948 187.432 15.948C187.9 15.948 188.332 15.828 188.728 15.588C189.136 15.348 189.46 15.006 189.7 14.562C189.952 14.118 190.078 13.59 190.078 12.978Z" fill="#6308F7"/>
</svg>
